<?xml version="1.0" encoding="UTF-8" standalone="no"?>
<!-- Created with Inkscape (http://www.inkscape.org/) -->

<svg
   version="1.1"
   id="svg132"
   width="708.95996"
   height="87.198395"
   viewBox="0 0 708.95995 87.198395"
   sodipodi:docname="Logo_La_Capital.svg"
   inkscape:version="1.2.1 (9c6d41e4, 2022-07-14)"
   inkscape:export-filename="Logo_La_Capital.svg"
   inkscape:export-xdpi="96"
   inkscape:export-ydpi="96"
   xmlns:inkscape="http://www.inkscape.org/namespaces/inkscape"
   xmlns:sodipodi="http://sodipodi.sourceforge.net/DTD/sodipodi-0.dtd"
   xmlns="http://www.w3.org/2000/svg"
   xmlns:svg="http://www.w3.org/2000/svg">
  <sodipodi:namedview
     id="namedview171"
     pagecolor="#505050"
     bordercolor="#eeeeee"
     borderopacity="1"
     inkscape:showpageshadow="0"
     inkscape:pageopacity="0"
     inkscape:pagecheckerboard="0"
     inkscape:deskcolor="#505050"
     showgrid="false"
     inkscape:zoom="1.7871249"
     inkscape:cx="229.13899"
     inkscape:cy="43.645522"
     inkscape:window-width="1440"
     inkscape:window-height="810"
     inkscape:window-x="0"
     inkscape:window-y="23"
     inkscape:window-maximized="1"
     inkscape:current-layer="g210" />
  <defs
     id="defs136">
    <clipPath
       clipPathUnits="userSpaceOnUse"
       id="clipPath148">
      <path
         d="M 0,657.642 H 904.252 V 0 H 0 Z"
         id="path146" />
    </clipPath>
    <clipPath
       clipPathUnits="userSpaceOnUse"
       id="clipPath172">
      <path
         d="m 247.088,390.11 h 43.844 v -45.123 h -43.844 z"
         id="path170" />
    </clipPath>
  </defs>
  <g
     id="g140"
     transform="matrix(1.3333333,0,0,-1.3333333,-152.10187,534.88664)">
    <g
       id="g142">
      <g
         id="g144"
         clip-path="url(#clipPath148)">
        <g
           id="g150"
           transform="translate(254.3638,350.1079)">
          <path
             d="m 0,0 -0.082,-0.157 -0.003,-0.006 -2.364,-4.602 c -1.127,-0.219 -2.209,-0.35 -3.055,-0.357 -0.896,-0.003 -1.503,0.147 -1.678,0.464 -0.428,0.783 -1.307,3.017 -1.307,3.017 l 5.26,1.419 z"
             style="fill:#3a617f;fill-opacity:1;fill-rule:nonzero;stroke:none"
             id="path152" />
        </g>
        <g
           id="g154"
           transform="translate(247.1821,345.4502)">
          <path
             d="m 0,0 1.608,0.226 0.069,-0.69 C 0.782,-0.468 0.147,-0.33 0,0"
             style="fill:#ffffff;fill-opacity:1;fill-rule:nonzero;stroke:none"
             id="path156" />
        </g>
        <g
           id="g158"
           transform="translate(290.9316,362.4951)">
          <path
             d="m 0,0 c -3.132,-1.36 -6.208,-2.808 -9.263,-4.351 -4.13,-2.079 -8.244,-4.191 -12.422,-6.172 -1.314,-0.624 -2.559,-1.208 -3.782,-1.768 -2.138,-0.978 -4.21,-1.866 -6.491,-2.706 -0.625,-0.232 -1.269,-0.459 -1.933,-0.683 -2.258,-0.766 -5.452,-1.743 -7.854,-1.818 -0.648,-0.04 -2.665,-0.016 -1.945,1.189 0.559,0.935 1.892,1.514 2.827,1.969 1.164,0.591 2.383,1.081 3.595,1.559 0.102,0.039 1.027,0.35 1.027,0.412 -0.01,0.069 -0.023,0.134 -0.033,0.2 -0.14,0.819 -0.277,1.64 -0.415,2.461 -0.48,2.827 -0.957,5.654 -1.435,8.485 -0.186,1.096 -0.369,2.187 -0.555,3.282 -0.053,0.324 -0.148,0.664 -0.157,0.994 -0.039,1.772 -0.082,3.544 -0.121,5.316 -0.111,4.81 -0.222,9.622 -0.334,14.434 0,0.043 -0.003,0.085 -0.003,0.128 0,0.097 1.232,0.555 1.376,0.621 1.017,0.46 2.02,0.938 3.021,1.431 1.68,0.834 3.341,1.713 4.979,2.632 0.283,0.153 0.564,0.313 0.845,0.474 4.544,2.581 8.927,5.442 13.18,8.479 0.968,0.69 1.929,1.389 2.883,2.099 0.932,-2.766 1.864,-5.535 2.792,-8.3 0.402,-1.19 0.801,-2.383 1.203,-3.573 1.376,-4.089 2.749,-8.175 4.125,-12.264 0.092,-0.268 0.18,-0.536 0.271,-0.804 1.17,-3.469 2.334,-6.94 3.504,-10.409 C -0.873,2.595 -0.627,1.873 -0.386,1.15 -0.258,0.765 -0.127,0.382 0,0"
             style="fill:#32a8de;fill-opacity:1;fill-rule:nonzero;stroke:none"
             id="path160" />
        </g>
        <g
           id="g162"
           transform="translate(286.042,377.0249)">
          <path
             d="m 0,0 c -3.472,-2.396 -7.035,-4.662 -10.699,-6.744 -0.908,-0.516 -1.823,-1.023 -2.746,-1.516 -0.01,-0.004 -0.016,-0.008 -0.023,-0.01 -0.912,-0.461 -1.778,-0.915 -2.618,-1.357 -1.638,-0.863 -3.184,-1.673 -4.831,-2.371 -1.334,-0.558 -2.736,-1.042 -4.302,-1.411 -3.268,-0.774 -3.171,-5.191 -3.21,-3.419 -0.111,4.812 -0.222,9.623 -0.334,14.432 0,0.045 -0.003,0.088 -0.003,0.13 0,0.099 1.233,0.553 1.377,0.618 1.016,0.461 2.019,0.942 3.02,1.436 1.971,0.977 3.912,2.017 5.825,3.101 4.544,2.586 8.927,5.446 13.179,8.48 0.416,0.297 0.827,0.595 1.24,0.896 C -2.75,8.175 -1.376,4.089 0,0"
             style="fill:#f1f1f1;fill-opacity:1;fill-rule:nonzero;stroke:none"
             id="path164" />
        </g>
        <g
           id="g166">
          <g
             id="g168" />
          <g
             id="g180">
            <g
               clip-path="url(#clipPath172)"
               opacity="0.199997"
               id="g178">
              <g
                 transform="translate(290.9316,362.4951)"
                 id="g176">
                <path
                   d="m 0,0 c -3.132,-1.36 -6.208,-2.808 -9.263,-4.351 -4.13,-2.079 -8.244,-4.191 -12.422,-6.172 -1.314,-0.624 -2.559,-1.208 -3.782,-1.768 -2.138,-0.978 -4.21,-1.866 -6.491,-2.706 -0.625,-0.232 -1.269,-0.459 -1.933,-0.683 -2.258,-0.766 -5.452,-1.743 -7.854,-1.818 -0.648,-0.04 -2.665,-0.016 -1.945,1.189 0.559,0.935 1.892,1.514 2.827,1.969 1.164,0.591 2.383,1.081 3.595,1.559 0.102,0.039 1.027,0.35 1.027,0.412 -0.01,0.069 -0.023,0.134 -0.033,0.2 -0.14,0.819 -0.277,1.64 -0.415,2.461 -0.48,2.827 -0.957,5.654 -1.435,8.485 -0.186,1.096 -0.369,2.187 -0.555,3.282 -0.053,0.324 -0.148,0.664 -0.157,0.994 -0.039,1.772 -0.082,3.544 -0.121,5.316 -0.111,4.81 -0.222,9.622 -0.334,14.434 0,0.043 -0.003,0.085 -0.003,0.128 0,0.097 1.232,0.555 1.376,0.621 1.017,0.46 2.02,0.938 3.021,1.431 1.68,0.834 3.341,1.713 4.979,2.632 0,0 9.727,-37.5 28.803,-24.298 C -0.873,2.595 -0.627,1.873 -0.386,1.15 -0.258,0.765 -0.127,0.382 0,0"
                   style="fill:#59534e;fill-opacity:1;fill-rule:nonzero;stroke:none"
                   id="path174" />
              </g>
            </g>
          </g>
        </g>
        <g
           id="g182"
           transform="translate(277.9219,401.165)">
          <path
             d="m 0,0 v -0.003 c -9.211,-6.839 -17.187,-11.517 -23.97,-14.685 -0.788,-0.369 -1.56,-0.715 -2.314,-1.041 v 0.002 c 0.754,0.327 1.526,0.674 2.314,1.043 C -17.187,-11.517 -9.211,-6.838 0,0"
             style="fill:#3a91b9;fill-opacity:1;fill-rule:nonzero;stroke:none"
             id="path184" />
        </g>
        <g
           id="g186"
           transform="translate(270.2305,359.4023)">
          <path
             d="m 0,0 c 0,0 -0.448,0.181 -1.35,0.367 -0.003,0 -0.006,0.003 -0.013,0.003 -0.167,0.032 -0.35,0.068 -0.545,0.101 -3.538,0.598 -12.027,0.929 -25.792,-5.119 -6.714,-2.948 -14.687,-7.417 -23.95,-14.115 -0.134,-0.094 -0.268,-0.192 -0.406,-0.294 -0.532,-0.382 -1.069,-0.777 -1.611,-1.18 l -13.01,38.67 c 11.385,4.335 44.478,26.762 52.582,13.548 l 3.965,-8.998 0.193,-0.434 4.145,-9.408 0.212,-0.484 0.216,-0.487 0.647,-1.468 0.265,-0.598 0.216,-0.49 0.163,-0.372 3.677,-8.343 z"
             style="fill:#32a8de;fill-opacity:1;fill-rule:nonzero;stroke:none"
             id="path188" />
        </g>
        <g
           id="g190"
           transform="translate(270.2305,359.4023)">
          <path
             d="m 0,0 c 0,0 -0.448,0.181 -1.35,0.367 -0.003,0 -0.006,0.003 -0.013,0.003 -0.167,0.032 -0.35,0.068 -0.545,0.101 -3.538,0.598 -12.027,0.929 -25.792,-5.119 -6.714,-2.948 -14.687,-7.417 -23.95,-14.115 -0.134,-0.094 -1.88,-1.372 -2.017,-1.474 l -8.776,26.863 c 8.4,5.109 42.332,26.13 52.313,16.357 l 0.193,-0.434 4.145,-9.408 0.212,-0.484 0.216,-0.487 0.647,-1.468 0.265,-0.598 0.216,-0.49 0.163,-0.372 3.677,-8.343 z"
             style="fill:#ffffff;fill-opacity:1;fill-rule:nonzero;stroke:none"
             id="path192" />
        </g>
        <g
           id="g194"
           transform="translate(270.2305,359.4023)">
          <path
             d="M 0,0 C 0,0 -0.448,0.181 -1.35,0.367 -1.353,0.367 -1.356,0.37 -1.363,0.37 -1.53,0.402 -1.713,0.438 -1.908,0.471 -5.446,1.069 -13.935,1.4 -27.7,-4.648 -38.287,-9.297 -47.875,-16.05 -53.667,-20.237 l -4.944,14.696 c 15.944,8.554 45.699,27.197 54.375,15.155 l 0.163,-0.372 3.677,-8.343 z"
             style="fill:#34a4d5;fill-opacity:1;fill-rule:nonzero;stroke:none"
             id="path196" />
        </g>
        <g
           id="g198"
           transform="translate(269.8086,357.9839)">
          <path
             d="m 0,0 h -0.003 c -1.964,-2.357 -9.431,-5.639 -15.527,-8.042 -3.644,-1.434 -6.9,-0.44 -8.025,-2.399 l -3.069,7.492 c 13.382,5.757 21.656,5.427 25.137,4.839 0.196,-0.033 0.379,-0.069 0.546,-0.101 0.006,0 0.01,-0.004 0.013,-0.004 C -0.026,1.599 0.422,1.418 0.422,1.418 0.605,1.003 0.438,0.526 0,0"
             style="fill:#396183;fill-opacity:1;fill-rule:nonzero;stroke:none"
             id="path200" />
        </g>
        <g
           id="g202"
           transform="translate(269.8076,357.9849)">
          <path
             d="m 0,0 h -0.003 c 0.703,1.14 -0.252,1.604 -0.925,1.784 -0.004,0 -0.006,0.004 -0.013,0.004 -0.304,0.078 -0.546,0.101 -0.546,0.101 l 0.896,0.598 0.617,-0.17 0.396,-0.9 C 0.605,1.003 0.438,0.526 0,0"
             style="fill:#34a4d5;fill-opacity:1;fill-rule:nonzero;stroke:none"
             id="path204" />
        </g>
        <g
           id="g206"
           transform="translate(242.4292,374.9536)">
          <path
             d="m 0,0 c 0,-2.455 -1.99,-4.446 -4.445,-4.446 -2.456,0 -4.447,1.991 -4.447,4.446 0,2.456 1.991,4.446 4.447,4.446 C -1.99,4.446 0,2.456 0,0"
             style="fill:#ffd438;fill-opacity:1;fill-rule:nonzero;stroke:none"
             id="path208" />
        </g>
        <g
           id="g210"
           transform="translate(645.7964,337.5752)">
          <path
             d="M 0,0 V 21.477 H -7.314 C -7.314,12.98 -8.809,6.923 -18.25,6.923 h -8.575 V 42.09 c 0,1.966 1.1,3.146 3.066,3.146 h 4.878 v 6.924 h -30.683 v -6.924 h 4.879 c 1.97,0 3.068,-1.18 3.068,-3.146 V 10.07 c 0,-1.966 -1.098,-3.147 -3.068,-3.147 h -4.797 V 0 Z m -86.293,40.437 h 0.156 l 5.664,-16.915 h -11.405 z m -4.72,11.723 -13.139,-39.335 c -1.575,-4.8 -2.675,-5.902 -5.428,-5.902 h -2.676 V 0 h 23.131 v 6.923 h -2.283 c -2.122,0 -4.877,0.236 -4.877,1.495 0,1.102 0.315,2.282 1.181,5.036 l 0.943,3.147 h 16.048 l 1.651,-5.665 c 0.315,-1.181 0.396,-2.045 0.396,-2.832 0,-0.866 -1.969,-1.181 -4.327,-1.181 h -2.358 V 0 h 28.711 v 6.923 h -2.675 c -2.752,0 -3.853,1.102 -5.427,5.902 L -75.279,52.16 Z m -63.013,-19.982 c 0,8.023 2.356,13.058 11.407,13.058 V 10.07 c 0,-1.966 -1.104,-3.147 -3.07,-3.147 h -4.876 V 0 h 30.524 v 6.923 h -4.719 c -1.969,0 -3.071,1.181 -3.071,3.147 v 35.166 c 9.047,0 11.407,-5.035 11.407,-13.058 h 7.319 V 52.16 h -52.237 V 32.178 Z m -11.549,19.982 h -30.68 v -6.924 h 4.876 c 1.967,0 3.067,-0.709 3.067,-2.046 V 10.07 c 0,-1.966 -1.1,-3.147 -3.067,-3.147 h -4.8 V 0 h 30.523 v 6.923 h -4.795 c -1.97,0 -3.069,1.181 -3.069,3.147 v 32.02 c 0,2.832 1.099,3.146 3.069,3.146 h 4.876 z m -63.599,-6.924 h 8.025 c 4.404,0 7.943,-3.068 7.943,-7.946 0,-4.877 -3.694,-7.867 -9.201,-7.867 h -6.767 z M -243.965,10.07 c 0,-1.966 -1.099,-3.147 -3.066,-3.147 h -4.801 V 0 h 30.999 v 6.923 h -5.273 c -1.969,0 -3.068,1.181 -3.068,3.147 V 22.5 h 8.653 c 14.476,0 22.106,4.092 22.106,14.869 0,10.778 -7.63,14.791 -20.533,14.791 h -32.961 v -6.924 h 4.878 c 1.967,0 3.066,-1.18 3.066,-3.146 z m -44.857,30.367 h 0.158 L -283,23.522 h -11.407 z m -4.72,11.723 -13.138,-39.335 c -1.574,-4.8 -2.675,-5.902 -5.427,-5.902 h -2.676 V 0 h 23.128 v 6.923 h -2.282 c -2.122,0 -4.877,0.236 -4.877,1.495 0,1.102 0.316,2.282 1.181,5.036 l 0.944,3.147 h 16.047 l 1.654,-5.665 c 0.314,-1.181 0.393,-2.045 0.393,-2.832 0,-0.866 -1.968,-1.181 -4.328,-1.181 h -2.359 V 0 h 28.717 v 6.923 h -2.679 c -2.753,0 -3.854,1.102 -5.427,5.902 l -13.141,39.335 z m -31.798,3.57 c -3.981,3.801 -13.571,6.062 -18.095,6.062 -17.55,0 -30.759,-12.577 -30.759,-31.755 0,-21.171 13.209,-31.846 31.936,-31.846 16.737,0 26.6,8.053 26.87,24.698 h -8.414 c 0,-8.413 -5.067,-16.284 -14.567,-16.284 -12.664,0 -16.194,9.138 -16.194,23.432 0,16.104 5.427,23.34 15.471,23.34 10.223,0 15.29,-7.87 15.29,-17.188 h 8.414 v 24.608 h -8.143 z M -444.157,40.437 H -444 l 5.666,-16.915 h -11.409 z m -4.719,11.723 -13.14,-39.335 c -1.571,-4.8 -2.674,-5.902 -5.427,-5.902 h -2.675 V 0 h 23.132 v 6.923 h -2.283 c -2.125,0 -4.877,0.236 -4.877,1.495 0,1.102 0.312,2.282 1.179,5.036 l 0.943,3.147 h 16.049 l 1.651,-5.665 c 0.317,-1.181 0.394,-2.045 0.394,-2.832 0,-0.866 -1.964,-1.181 -4.327,-1.181 h -2.359 V 0 h 28.715 v 6.923 h -2.678 c -2.749,0 -3.853,1.102 -5.427,5.902 L -433.143,52.16 Z M -474.723,0 v 24.699 h -8.415 c 0,-9.771 -1.719,-16.737 -12.575,-16.737 h -9.86 v 40.44 c 0,2.263 1.266,3.619 3.527,3.619 h 5.609 v 7.962 h -35.283 v -7.962 h 5.608 c 2.261,0 3.53,-1.356 3.53,-3.619 V 11.581 c 0,-2.263 -1.269,-3.619 -3.53,-3.619 h -5.518 V 0 Z"
             style="fill:#000000;fill-opacity:1;fill-rule:nonzero;stroke:none"
             id="path212" />
        </g>
      </g>
    </g>
  </g>
</svg>
